<?xml version="1.0" encoding="UTF-8"?>
<svg width="416px" height="601px" viewBox="0 0 416 601" version="1.1" xmlns="http://www.w3.org/2000/svg" xmlns:xlink="http://www.w3.org/1999/xlink">
    <!-- Generator: Sketch 56.2 (81672) - https://sketch.com -->
    <title>Group 13</title>
    <desc>Created with Sketch.</desc>
    <defs>
        <rect id="path-1" x="0" y="0" width="448" height="614"></rect>
    </defs>
    <g id="Page-1" stroke="none" stroke-width="1" fill="none" fill-rule="evenodd">
        <g id="Desktop-HD" transform="translate(-5149.000000, -2115.000000)">
            <g id="Group-13" transform="translate(5128.000000, 2102.000000)">
                <mask id="mask-2" fill="white">
                    <use xlink:href="#path-1"></use>
                </mask>
                <g id="Rectangle"></g>
                <g id="Group-12" mask="url(#mask-2)">
                    <g transform="translate(21.607638, 13.000000)">
                        <g id="Group-10" stroke-width="1" fill="none" transform="translate(48.129728, 0.000000)">
                            <g id="Group-11" transform="translate(62.262634, 70.261429)">
                                <path d="M37.1025405,168.770828 C14.5547137,151.607721 0,124.483578 0,93.96 C0,42.0673249 42.0673249,1.13686838e-13 93.96,1.13686838e-13 C145.852675,1.13686838e-13 187.92,42.0673249 187.92,93.96 C187.92,125.086436 172.784681,152.677829 149.47216,169.776063 C136.789305,184.667644 130.447881,199.564207 130.447881,214.465759 C110.591266,224.16414 85.1289661,228.418983 56.6622949,214.465759 C56.6622949,199.399581 50.1423768,184.167937 37.1025405,168.770828 Z" id="Combined-Shape" fill="#2DE609"></path>
                                <path d="M88.0674609,210.480316 C90.1484692,183.814191 98.5606128,175.89807 113.684502,164.149493 C128.808391,152.400917 146.056597,115.35069 141.498831,100.10327 C136.941064,84.8558508 135.399067,71.9632299 121.741128,70.1444653 C108.083188,68.3257006 90.2111792,91.5594665 94.6766382,108.304355 C99.1420972,125.049244 119.993005,127.852516 128.326025,120.442677 C136.659045,113.032838 152.784031,66.5300622 119.402622,56.6544519 C86.0212134,46.7788415 74.7702686,85.6569958 74.7702686,100.10327 C74.7702686,114.549545 89.2259033,151.802557 121.741128,141.301869 C154.256353,130.80118 164.311501,92.0791638 156.812739,72.8560229 C149.313977,53.632882 119.402622,18.8152801 80.7924683,36.5799694 C55.0523657,48.4230957 44.4066614,66.1811694 48.8553552,89.8541906 L40.4188879,124.361235 L54.8876514,126.484257 C55.2018018,151.291766 57.0226538,164.782303 60.3502075,166.955868 C65.3415381,170.216215 101.092346,155.911686 106.032568,177.614518 C109.32605,192.083072 110.102402,205.944998 108.361626,219.200295 C93.4448437,231.164393 86.6801221,228.257733 88.0674609,210.480316 Z" id="Path-78" stroke="#FFFFFF" stroke-width="3.6"></path>
                                <rect id="Rectangle" fill="#9AA5AB" x="50.4" y="241.2" width="85.68" height="13.68" rx="6.84"></rect>
                                <rect id="Rectangle" fill="#9AA5AB" x="50.4" y="254.88" width="85.68" height="13.68" rx="6.84"></rect>
                                <ellipse id="Oval" fill="#9AA5AB" cx="94.32" cy="271.8" rx="33.12" ry="9.72"></ellipse>
                                <rect id="Rectangle" fill="#9AA5AB" x="50.4" y="227.52" width="85.68" height="13.68" rx="6.84"></rect>
                                <rect id="Rectangle" fill="#9AA5AB" x="50.4" y="214.56" width="85.68" height="13.68" rx="6.84"></rect>
                            </g>
                            <polygon id="Path-80" fill="#2DE609" points="212.688911 59.5771484 229.87027 29.3990479 226.005066 22.3499451 208.434204 53.1851501"></polygon>
                            <polygon id="Path-80" fill="#2DE609" points="268.13385 99.5581512 300.386322 80.0966339 296.140533 70.2614288 263.262634 92.4937592"></polygon>
                            <polygon id="Path-80" fill="#2DE609" points="49.4221802 89.969101 22.2039795 64.6426697 15.5140991 75.8173828 43.0879822 92.3733368"></polygon>
                            <polygon id="Path-80" fill="#2DE609" points="88.1082153 57.1729126 72.2626343 26.4652405 65.9486694 30.4156189 81.7740173 59.5771484"></polygon>
                            <polygon id="Path-80" fill="#2DE609" points="312.690186 147.349655 281.824478 147.349655 276.154602 155.263168 315.890076 161.590866"></polygon>
                            <polygon id="Path-80" fill="#2DE609" points="32.4681396 139.436142 -1.13686838e-13 141.762299 -1.13686838e-13 155.263168 32.4681396 147.258331"></polygon>
                            <polygon id="Path-80" fill="#2DE609" points="155.502634 43.0211945 159.157532 -5.68434189e-14 145.585052 4.47740936 148.342407 45.5541306"></polygon>
                        </g>
                        <path d="M26.1003764,311.724866 C38.360671,339.002108 44.4908183,354.875602 44.4908183,359.345349 C44.4908183,366.049969 44.4908183,396.668958 35.2955973,408.927686 C29.16545,417.100171 26.1003764,424.096661 26.1003764,429.917157 C30.6806256,462.031476 34.8907616,480.848075 38.7307843,486.366956 C44.4908183,494.645276 68.0456889,509.409985 73.9927104,495.191785 C79.9397319,480.973584 73.9927104,474.760419 73.9927104,452.338788 C73.9927104,429.917157 62.2583083,374.117627 56.813206,359.345349 C53.1831378,349.497164 42.9455279,333.623669 26.1003764,311.724866 Z" id="Path-71" fill="#F8F8F5" transform="translate(51.368104, 406.422667) rotate(-180.000000) translate(-51.368104, -406.422667) "></path>
                        <path d="M-1.0658141e-13,338.390271 C18.4822998,373.83541 29.3075765,395.783444 32.4758301,404.234372 C37.2282104,416.910763 42.8627014,436.617611 35.8320312,444.468319 C31.1449178,449.702125 24.439565,451.653358 15.7159729,450.322018 C15.7304088,432.579261 14.8394662,418.350979 13.0431451,407.637173 C11.2468239,396.923367 6.89910889,373.841066 -1.0658141e-13,338.390271 Z" id="Path-72" fill="#F8F8F5" transform="translate(19.571761, 394.558630) rotate(-180.000000) translate(-19.571761, -394.558630) "></path>
                        <path d="M64.0054232,356.603775 L200.175101,302.783085 C306.253389,371.422042 363.828096,410.544031 372.899222,420.149052 C386.505911,434.556584 432.928641,505.212254 425.616263,541.258061 C418.303885,577.303868 375.339591,638.94608 366.42327,651.395115 C357.506949,663.844151 347.023795,674.003941 333.655936,668.924046 C320.288077,663.844151 316.617056,654.737644 322.389029,637.830845 C328.161002,620.924046 349.931937,583.950382 358.177603,562.604222 C366.42327,541.258061 354.157401,501.120468 333.655936,486.522257 C313.154471,471.924046 303.608267,455.562413 277.824515,460.710942 C252.040763,465.859471 205.835562,493.007786 205.835562,534.606388 C205.835562,576.204991 245.423575,612.262547 245.423575,620.924046 C245.423575,629.585545 258.491202,644.011448 251.957389,656.467747 C245.423575,668.924046 236.980887,668.924046 225.083914,668.924046 C213.186942,668.924046 163.600485,600.721165 156.568839,581.662693 C149.537192,562.604222 130.44213,499.169682 130.44213,471.924046 C130.44213,453.760288 108.296561,415.320198 64.0054232,356.603775 Z" id="Path-70" fill="#F8F8F5" transform="translate(245.198892, 486.522257) rotate(-180.000000) translate(-245.198892, -486.522257) "></path>
                    </g>
                </g>
            </g>
        </g>
    </g>
</svg>