<?xml version="1.0" encoding="UTF-8"?>
<svg width="319px" height="319px" viewBox="0 0 319 319" version="1.1" xmlns="http://www.w3.org/2000/svg" xmlns:xlink="http://www.w3.org/1999/xlink">
    <!-- Generator: Sketch 56.2 (81672) - https://sketch.com -->
    <title>Group 7</title>
    <desc>Created with Sketch.</desc>
    <defs>
        <rect id="path-1" x="0" y="0" width="318.08" height="318.08" rx="89.6"></rect>
    </defs>
    <g id="Page-1" stroke="none" stroke-width="1" fill="none" fill-rule="evenodd">
        <g id="Jumplead" transform="translate(-669.000000, -3836.000000)">
            <g id="Group-7" transform="translate(669.000000, 3836.000000)">
                <mask id="mask-2" fill="white">
                    <use xlink:href="#path-1"></use>
                </mask>
                <rect stroke="#979797" stroke-width="0.56" x="0.28" y="0.28" width="317.52" height="317.52" rx="89.6"></rect>
                <g id="Group-6" mask="url(#mask-2)">
                    <g transform="translate(-53.200000, -64.400000)">
                        <g id="Group-3" stroke-width="1" fill="none">
                            <polygon id="Path-30" stroke="#979797" stroke-width="0.56" fill="#B2A439" points="200.199146 9.16365967 219.001392 204.765475 222.472886 211.254027 243.34584 2.24"></polygon>
                            <polygon id="Path-31" fill="#651610" points="243.62584 5.6 280.018218 5.6 227.604077 204.567241 219.239146 208.080016"></polygon>
                            <polygon id="Path-32" stroke="#979797" stroke-width="0.56" fill="#C13229" points="280.018218 5.6 320.230586 5.6 229.180342 204.453705 219.239146 214.929976"></polygon>
                            <polygon id="Path-33" fill="#2A6571" points="320.230586 13.9848413 336.92145 27.8844727 230.407119 208.080016 221.772493 218.986079"></polygon>
                            <polygon id="Path-34" stroke="#979797" stroke-width="0.56" fill="#5293A1" points="233.714038 208.080016 354.870332 57.0138464 336.92145 27.8844727 226.856533 211.254027"></polygon>
                            <polygon id="Path-35" stroke="#979797" stroke-width="0.56" fill="#D08A5C" points="239.442622 211.254027 400.519287 90.16 374.042642 38.4604199 233.714038 208.080016"></polygon>
                            <polygon id="Path-36" fill="#E94782" points="238.580029 214.929976 389.842544 93.8903882 385.927021 160.434634 243.34584 218.986079"></polygon>
                            <polygon id="Path-37" fill="#50162A" points="253.093545 214.929976 384.007559 163.240427 384.007559 185.36 253.093545 218.986079"></polygon>
                            <polygon id="Path-38" fill="#A92E49" points="259.771812 224.748979 367.820845 211.254027 389.842544 183.425532 253.093545 218.986079"></polygon>
                            <polygon id="Path-39" fill="#77C434" points="253.093545 227.78834 374.042642 211.254027 401.665981 252.973198 257.207856 232.113613"></polygon>
                            <polygon id="Path-40" fill="#F08B33" points="245.681987 237.656729 385.89585 292.794717 415.596699 252.699586 239.399146 231.84"></polygon>
                            <polygon id="Path-41" fill="#612A12" points="249.628682 239.476853 397.431392 296.904556 419.058657 323.837021 239.399146 239.476853"></polygon>
                            <polygon id="Path-42" fill="#EA4633" points="242.199146 244.041191 392.991895 366.337839 400.519287 314.121667 248.481987 239.68"></polygon>
                            <polygon id="Path-43" fill="#653DC5" points="249.628682 247.686729 419.058657 387.175845 354.870332 401.04603 233.714038 252.973198"></polygon>
                            <polygon id="Path-44" fill="#FFED6C" points="233.714038 252.973198 363.70062 412.84438 332.705215 449.416953"></polygon>
                            <polygon id="Path-45" fill="#423F13" points="327.771514 445.065605 232.25665 253.12 225.399146 253.12 306.788467 449.563755"></polygon>
                            <polygon id="Path-46" stroke="#979797" stroke-width="0.56" fill="#A29D39" points="310.78397 455.705161 225.399146 246.96 280.018218 444.004736"></polygon>
                            <polygon id="Path-47" stroke="#979797" stroke-width="0.56" fill="#40929F" points="243.612493 452.776953 279.613624 444.830142 225.665798 250.32 222.039146 256.48"></polygon>
                            <polygon id="Path-48" fill="#DB5A61" points="215.319146 452.776953 243.563359 448.347095 220.603359 235.2"></polygon>
                            <polygon id="Path-49" fill="#53151A" points="187.319146 444.738267 215.412935 465.276157 221.866282 239.68 215.412935 250.32"></polygon>
                            <polygon id="Path-50" fill="#98BED5" points="140.279146 439.839839 187.125415 449.976953 215.125415 247.52 207.809766 250.32"></polygon>
                            <polygon id="Path-51" fill="#000000" points="106.119146 449.416953 136.435332 444.844839 211.281602 239.68"></polygon>
                            <polygon id="Path-52" fill="#265C7C" points="53.4791455 435.536685 106.119146 453.336953 211.281602 235.76"></polygon>
                            <polygon id="Path-53" fill="#E93F33" points="36.6791455 426.237998 42.8452295 445.7398 205.670835 241.92"></polygon>
                            <polygon id="Path-54" fill="#EF8A33" points="34.9991455 371.377839 42.9870068 419.681924 198.519146 252.726729 194.902388 246.96"></polygon>
                            <polygon id="Path-55" fill="#38711D" points="49.4943066 303.00892 19.8791455 382.281689 204.679146 241.92 197.030005 241.92"></polygon>
                            <polygon id="Path-56" fill="#50162A" points="36.6791455 287.061592 40.4734668 303.00892 197.030005 241.92 187.319146 239.476853"></polygon>
                            <polygon id="Path-57" stroke="#979797" stroke-width="0.56" fill="#ED88AC" points="25.4791455 249.76 192.919146 231.84 189.250811 238.56 25.4791455 289.434717"></polygon>
                            <polygon id="Path-58" fill="#D8582E" points="5.31914551 250.462649 193.17269 232.256262 186.520366 224.891628 11.0937524 199.92"></polygon>
                            <polygon id="Path-59" fill="#7B72E7" points="5.31914551 110.264988 198.519146 218.986079 177.70228 224.748979 -2.91104611e-14 199.92"></polygon>
                            <polygon id="Path-60" fill="#3737BE" points="20.9991455 117.785942 43.5657715 90.16 187.116631 204.182745 177.405771 207.858694"></polygon>
                            <polygon id="Path-61" fill="#64D2CA" points="22.1191455 71.8364575 206.919146 225.325659 211.312714 214.198274 43.3991455 44.8"></polygon>
                            <polygon id="Path-62" fill="#4C2F11" points="33.3191455 28.9317981 219.202744 230.364138 219.202744 216.869186 66.1625098 19.6"></polygon>
                            <polygon id="Path-63" fill="#D8582E" points="69.1591455 20.1573083 215.464341 219.000016 125.357729 8.96"></polygon>
                            <polygon id="Path-64" fill="#EF8933" points="174.920481 8.96 123.479146 8.96 219.257346 220.300818"></polygon>
                            <polygon id="Path-65" fill="#332F0E" points="174.999146 2.84217094e-14 201.889579 5.61515869 219.069358 227.935159"></polygon>
                        </g>
                        <path d="M114.8,225.078442 C148.166934,187.113097 179.886592,169.271671 209.958975,171.554163 C240.031358,173.836656 271.591699,191.678082 304.64,225.078442 C271.227005,260.199481 240.86569,277.76 213.556053,277.76 C186.246416,277.76 153.327732,260.199481 114.8,225.078442 Z" id="Path-67" fill="#FFFDFF"></path>
                        <circle id="Oval" fill="#64D1C7" cx="210" cy="225.12" r="39.76"></circle>
                        <ellipse id="Oval" fill="#000000" cx="210.28" cy="225.12" rx="23.8" ry="24.08"></ellipse>
                    </g>
                </g>
            </g>
        </g>
    </g>
</svg>