<?xml version="1.0" encoding="UTF-8"?>
<svg width="183px" height="82px" viewBox="0 0 183 82" version="1.1" xmlns="http://www.w3.org/2000/svg" xmlns:xlink="http://www.w3.org/1999/xlink">
    <!-- Generator: Sketch 56.2 (81672) - https://sketch.com -->
    <title>Group</title>
    <desc>Created with Sketch.</desc>
    <g id="Page-1" stroke="none" stroke-width="1" fill="none" fill-rule="evenodd">
        <g id="Jumplead" transform="translate(-819.000000, -196.000000)">
            <g id="Group" transform="translate(819.000000, 196.000000)">
                <path d="M15.4059023,0.790515577 C17.1158428,0.790515577 17.8959641,1.30128868 19.0327029,1.30128868 C20.1694416,1.30128868 23.6122975,0.236597941 24.8929163,0.236597941 C26.173535,0.236597941 30.375094,-0.295747426 30.9315364,0.236597941 C31.3024979,0.591494852 31.6586525,1.17376285 32,1.98340192 L32,4.89827679 L31.4390836,7.69522566 L30.9315364,11.3091304 L28.39987,19.4637137 L24.8929163,31.3367673 L22.1501531,38.4805255 C22.109146,38.5748174 22.0447929,38.7091623 21.9570939,38.8835601 C21.8693948,39.057958 21.7107148,39.3671357 21.4810538,39.8110932 C21.4810538,39.8585542 21.4810538,39.952145 21.4810538,40.0918658 C21.4810538,40.2315865 21.4810538,40.4611059 21.4810538,40.7804238 L21.188915,40.9867528 L20.8027768,40.9867528 C20.898018,40.8813904 20.7732535,41.0095248 20.428483,41.3711561 C20.0837126,41.7327874 19.6184525,42.2235325 19.0327029,42.8433914 L17.4876686,45.6067134 L14.1428885,48.3338481 C13.9069553,48.5132081 13.9290427,48.3760015 14.2091509,47.9222281 C14.4892592,47.4684547 14.8032136,47.0612757 15.1510144,46.7006911 L15.4059023,46.3675839 L17.4876686,43.9891617 C18.2692719,42.2643369 18.7653933,41.1835813 18.9760328,40.7468951 C19.1866723,40.3102089 19.2055623,40.2228547 19.0327029,40.4848327 L17.4876686,42.8433914 C17.3100873,43.065152 17.3250596,42.9513452 17.5325856,42.501971 C17.7401117,42.0525967 18.2401507,40.8938548 19.0327029,39.0257452 C18.9809593,39.0554637 18.9378728,39.1012874 18.9034433,39.1632164 C18.7383767,39.4601246 18.4905876,40.0083066 18.1639858,40.6168628 C17.8695558,41.1654732 17.3898039,41.988168 16.9354693,42.8433914 C16.7972533,43.1035643 16.6084039,43.4854878 16.3689212,43.9891617 L14.8687112,45.6067134 L14.1428885,46.3675839 L13.3679636,48.3338481 C13.2015302,48.6875573 13.0749243,48.9604459 12.9881459,49.1525138 C12.9013675,49.3445817 12.8534574,49.4579519 12.8444157,49.4926243 C12.304008,49.7813631 11.8910462,49.9874783 11.6055303,50.11097 C11.3200144,50.2344616 10.939653,50.3714753 10.4644463,50.5220112 C10.0345991,50.6462822 9.69805531,50.7355488 9.45481484,50.789811 C9.21157437,50.8440731 8.83420389,50.9141361 8.32270341,51 C8.28097573,50.9665702 8.36825122,50.8598623 8.58452986,50.6798762 C8.8008085,50.4998902 9.12573329,50.2634975 9.55930422,49.9706983 C9.55930422,49.933073 9.4595836,49.9142603 9.26014236,49.9142603 C9.06070112,49.9142603 8.40764015,49.933073 7.30095947,49.9706983 C7.2323176,49.9440292 7.19799666,50.0210318 7.19799666,50.2017061 C7.19799666,50.3534289 7.30078593,50.5770635 7.34919175,50.8492666 C7.35534958,50.8838943 7.30495122,50.8274309 7.19799666,50.6798762 C6.81324728,50.6766107 6.48736334,50.623989 6.22034485,50.5220112 C5.95332635,50.4200333 5.55627141,50.2830196 5.02918004,50.11097 C4.56426139,49.9614494 4.20486915,49.8188854 3.95100332,49.6832781 C3.69713748,49.5476708 3.33262727,49.3035483 2.85747267,48.9509108 C2.37632774,48.3318721 2.01481643,47.8299668 1.77293872,47.4451947 C1.53106101,47.0604227 1.19182254,46.4475956 0.755223295,45.6067134 C0.546936444,44.7134366 0.394828637,44.0310949 0.298899874,43.5596882 C0.202971112,43.0882816 0.115665297,42.5941131 0.0369824305,42.0771828 C0.0660638371,41.5163052 0.0806045404,41.0295318 0.0806045404,40.6168628 C0.0806045404,40.2041937 0.0554282246,39.7196449 0.00507559306,39.1632164 C-0.0155502858,39.0715689 0.0266874563,38.9223484 0.131788819,38.7155546 C0.236890182,38.5087608 0.444701674,38.055566 0.755223295,37.3559702 L1.41289961,39.0257452 L2.0002542,42.8433914 C2.06301468,42.9937768 2.20187656,43.2325424 2.41683984,43.5596882 C2.63180312,43.8868341 2.94550294,44.336808 3.35793931,44.9096098 C3.36544589,45.1593465 3.56313389,45.3917143 3.95100332,45.6067134 C4.33887274,45.8217125 5.01793811,46.075336 5.98819942,46.3675839 L8.9759253,46.3675839 C10.0441529,45.6861244 10.781295,45.200133 11.1873516,44.9096098 C11.5934082,44.6190866 11.964352,44.3122706 12.3001831,43.9891617 L14.8687112,39.8110932 C15.7452526,37.8791465 16.434172,36.2948574 16.9354693,35.0582259 C17.4367666,33.8215944 18.1358445,31.9818853 19.0327029,29.5390986 C20.0415989,26.5810322 20.7603362,24.4144031 21.188915,23.0392113 C21.6174937,21.6640194 22.1518197,19.8099108 22.7918932,17.4768854 L24.8929163,8.3657579 L24.8929163,5.86125188 L25.3735802,6.59342669 L25.6316234,7.69522566 L24.8929163,10.3191768 L24.1719204,13.5353586 C24.7876964,12.0019087 25.2742641,10.7970786 25.6316234,9.92086808 C25.9889828,9.04465758 26.2052162,8.52628752 26.2803237,8.3657579 C26.2803237,7.82367053 26.2803237,7.40308931 26.2803237,7.10401423 C26.2803237,6.80493915 26.2803237,6.39068504 26.2803237,5.86125188 L22.7918932,5.86125188 L20.8027768,6.59342669 L16.3689212,7.10401423 L12.8444157,7.10401423 L11.5501089,7.10401423 L10.4644463,5.86125188 L11.5501089,4.89827679 L11.5501089,3.53564558 L12.3001831,2.97928241 C13.2307022,1.52010452 14.265942,0.790515577 15.4059023,0.790515577 Z" id="Path" fill="#FFFFFF"></path>
                <polygon id="Path-2" fill="#FFFFFF" points="33.9314987 26.2775888 34.4635343 26.9610413 34.7234183 28.0923375 34.3274585 28.0923375 33.6883552 30.3263045 32.5923297 33.5070675 31.826036 35.5879809 31.2508244 37.6196921 30.8780544 38.9358611 30.1743845 40.9504662 29.773374 41.9868725 29.773374 43.0736812 30.1743845 43.0736812 31.2508244 42.4181855 35.056788 38.9358611 39.5724436 34.675635 34.3274585 40.0915845 31.826036 42.4181855 33.6883552 41.2546242 30.1743845 43.5657206 30.8780544 43.5657206 32.5923297 42.4181855 34.7234183 40.4604975 37.274001 37.9590164 39.3193393 36.0751113 40.0332792 34.2258155 41.9145754 31.4804435 42.9393179 30.3263045 43.8415342 29.8999147 44.6290961 30.3263045 45.071056 31.4804435 45.071056 32.4731418 44.3233118 33.5070675 44.3233118 34.9216547 43.8415342 36.0751113 43.4097516 37.6196921 42.9393179 38.9358611 42.9393179 40.4604975 43.4097516 41.2546242 43.4097516 41.9868725 44.3233118 42.4181855 45.7277475 42.4181855 47.3921107 41.2546242 49.4178816 39.5640961 50.303103 38.9358611 50.7528167 36.3545813 51.5471991 33.9067013 52.4911928 31.0982833 53.3436923 29.0210901 54.2670109 26.9610413 55.1518697 26.2775888 55.9664126 26.2775888 56.5351158 26.9610413 56.5351158 28.0923375 55.9664126 29.8999147 55.9664126 31.4804435 55.1518697 32.8341618 54.590836 34.2258155 57.2233511 30.6497059 58.7480245 28.7570866 60.2235378 26.9610413 61.392609 25.414719 62.527637 24.4753369 63.9064017 24 65.5380628 24 66.2294919 24.8169857 66.2294919 25.851217 65.9820834 27.275204 65.2222362 29.8999147 64.7220495 32.0807776 64.4500076 33.5070675 63.9064017 35.5879809 64.7220495 34.2258155 64.9658875 34.9216547 65.5380628 34.9216547 66.6406192 33.5070675 67.9595405 32.8341618 67.9595405 31.4804435 70.2446037 28.3705035 72.6591036 25.851217 74.2544358 25.156674 75.6713399 25.414719 76.693839 26.2775888 77 27.275204 76.693839 28.7570866 76.693839 30.3263045 76.272169 31.4804435 76.693839 31.0982833 76.693839 32.8341618 76.0368439 32.0807776 76.272169 33.5070675 75.6713399 40.7104382 76.0368439 42.4181855 76.693839 43.0736812 77 43.5657206 76.693839 44.0155051 75.6713399 44.0155051 74.2544358 43.5657206 73.0210596 42.6813608 71.8699616 41.2546242 71.2069389 39.5640961 71.2069389 37.0720572 71.5248909 34.9216547 71.8699616 32.8341618 72.2763096 31.4804435 72.2763096 30.6497059 71.8699616 30.6497059 70.7993877 32.0807776 69.4007098 33.9067013 67.5168694 36.3545813 65.9820834 38.5297733 64.7220495 39.5640961 63.5682499 40.0915845 62.527637 40.0915845 61.392609 39.5640961 60.6989421 38.9358611 60.2235378 37.9590164 60.2235378 36.3545813 60.6989421 34.9216547 60.6989421 33.9067013 61.0749325 32.8341618 60.6989421 32.4731418 59.7789859 33.9067013 59.327113 34.2258155 58.7480245 34.2258155 58.4454677 34.675635 57.6043515 34.675635 58.4454677 32.8341618 56.2360367 36.0751113 55.1518697 37.9590164 56.2360367 37.0720572 57.2233511 35.2454423 57.6043515 35.2454423 55.4018702 38.5297733 54.2670109 40.0915845 53.7818315 41.5373113 53.386687 42.4181855 53.3436923 43.5657206 52.852221 43.5657206 52.4911928 44.0155051 52.0197863 44.0155051 50.7528167 43.0736812 50.303103 42.4181855 50.0473363 41.9868725 50.0473363 41.5373113 50.0473363 40.9504662 48.8350737 42.6813608 47.3921107 43.5657206 46.3211094 44.0155051 44.6290961 44.8761324 47.0245263 43.0736812 49.4178816 41.2546242 50.0473363 40.4604975 47.3921107 42.4181855 45.7277475 43.5657206 43.4097516 45.6887236 42.318743 46 40.9277642 46 39.5724436 45.6887236 38.3904007 44.8761324 37.9006879 44.0155051 37.9006879 43.0736812 37.9006879 41.5373113 37.9006879 39.5640961 36.1832891 41.2546242 34.3274585 43.0736812 31.826036 44.8761324 30.5579868 45.6887236 28.5609848 45.6887236 27.0849233 45.2213355 26.4213397 44.3652511 26 43.0736812 26 41.2546242 26 38.5297733 26.7818548 35.5879809 27.5808395 33.5070675 27.5808395 32.4731418 29.1805068 29.0210901 30.5579868 27.275204 30.5579868 26.9610413 31.2508244 26.9610413 32.2577876 26.2775888 32.5923297 26.9610413 33.2627267 25.851217"></polygon>
                <path d="M85.7931578,24.6057401 L86.4294377,25.131462 L86.8332388,25.4278876 L87.4047238,24.6057401 L87.9127708,24.6057401 L88.5193661,25.0168139 L88.760898,25.8393979 L88.760898,26.7341992 L88.760898,27.8444633 L88.151483,29.6044889 L87.4047238,31.1788669 L86.8332388,32.7858869 L86.1953076,34.1988466 L86.1953076,35.2618267 L87.2770279,33.4949664 L89.2715206,30.8587237 L90.9947814,28.4773545 L92.9054058,26.2622295 L94.516278,25.0168139 L95.6655589,24 L96.7863236,24 L97.7199551,25.0168139 L98.4078862,25.8393979 L99,27.4975571 L99,29.1764012 L99,30.8587237 L98.4078862,32.7858869 L97.4132147,34.9060558 L96.1809494,36.803057 L94.7972358,38.3682207 L93.2336021,39.8897372 L91.4111019,41.2504379 L92.3965789,40.1293296 L90.7291488,41.2504379 L89.2715206,41.2504379 L88.5193661,40.9519606 L88.151483,40.9519606 L88.151483,40.1293296 L87.4047238,39.8897372 L86.8332388,39.1938143 L86.4294377,38.3682207 L86.4294377,37.2563604 L85.7931578,37.8589165 L84.9907176,40.1293296 L84.3882103,41.5538538 L84.3882103,42.7012303 L83.6018975,43.4893948 L82.7587769,47.4574969 L82.2034054,50.1162604 L81.8647906,51.9666314 L81.3721881,54.9714869 L81.0296352,56.606028 L80.6839961,58.0207955 L80.3608148,59.1803923 L79.8921382,61.1788823 L79.302056,61.674901 L79.5669448,60.7701047 L79.8921382,58.7989201 L79.302056,61.1788823 L78.8703436,62.1899902 L78.2634763,62.6601359 L77.3752127,63 L77.3752127,62.1899902 L77,62.6601359 L77,61.674901 L77,60.7701047 L77.3752127,57.4027747 L77.917482,52.7230172 L78.4938723,50.9591783 L78.8703436,45.8121117 L79.302056,43.4893948 L79.8921382,40.1293296 L80.3608148,38.7877429 L80.3608148,40.4693072 L79.8921382,42.1408864 L79.302056,45.5478613 L80.6839961,39.8897372 L80.3608148,38.3682207 L81.3721881,34.5700429 L81.8647906,32.2891296 L82.7587769,29.1764012 L83.9236107,26.7341992 L84.3882103,25.8393979 L83.9236107,27.2472325 L84.9907176,25.4278876 L85.7931578,24.6057401 Z M95.3566454,27.5418742 L94.302352,27.5418742 L92.9701675,28.7175958 L91.5043327,30.3327328 L89.9711218,32.1946837 L88.9412761,33.454953 L88,34.9060558 L87.6282495,35.74677 L88,36.7532113 L88.3294993,37.6788116 L89.6407358,37.0792826 L91.2572197,35.74677 L92.9701675,34.0768501 L94.0103929,32.1946837 L94.7619451,30.8188393 L95.3566454,29.7861046 L95.6186341,28.7175958 L95.3566454,27.5418742 Z" id="Combined-Shape" fill="#FFFFFF"></path>
                <path d="M123.42081,0.700596397 L123.798942,2.19642451 L123.798942,3.82101016 L123.609876,5.85251593 L122.958899,7.94099071 L121.849704,10.4279798 L120.279154,12.9133525 L118.829382,15.0425542 L116.985186,16.8427973 L114.897437,19.6139345 L112.914116,22.3510299 L110.366105,25.7673199 L108.272851,28.5663412 L107.361734,30.488453 L106.525633,32.7266176 L105.966131,34.9781303 L105.455983,37.2412976 L105.037694,39.9335545 L105.037694,42.0492221 L105.037694,43.4572659 L105.455983,44.6835191 L106.218472,45.5956249 L107.361734,46.3745586 L108.522792,46.3745586 L109.638177,46.3745586 L110.900023,45.5956249 L112.028057,44.6835191 L113.194235,43.7428757 L114.418318,42.7981906 L115.754317,41.5441421 L115.463792,41.0193914 L114.897437,39.9335545 L114.897437,38.5314352 L114.418318,37.2412976 L114.897437,34.9781303 L115.754317,32.7266176 L117.219841,30.488453 L118.829382,28.5663412 L120.279154,27.2272954 L122.263899,25.7673199 L124.146033,24.592591 L126.285283,23.9846175 L128.448167,23.9846175 L130.130026,24.3394045 L131.417871,25.3825258 L131.924462,26.2714986 L131.924462,27.635659 L131.417871,28.9874791 L130.661394,30.1456831 L129.246417,31.411634 L127.638056,32.7266176 L125.778519,33.4252842 L124.146033,34.074869 L122.263899,34.9781303 L120.707814,35.5341476 L119.530715,36.0163829 L118.829382,36.7038482 L118.481078,37.8747215 L118.481078,39.5079383 L118.481078,41.0193914 L118.829382,42.0492221 L120.279154,42.7981906 L121.849704,43.1724748 L123.42081,43.1724748 L125.301099,42.7981906 L127.069632,42.3177774 L128.853494,41.5441421 L130.130026,40.6676636 L131.417871,39.9335545 L132.262114,39.2107949 L132.577121,37.8747215 L131.924462,38.8957945 L132.577121,37.2412976 L132.991324,36.0163829 L132.991324,34.7262368 L133.985656,33.4252842 L135.222813,31.411634 L136.471088,30.1456831 L137.55013,29.3007288 L138.742429,28.5663412 L139.753661,28.1252862 L141.359172,27.635659 L142.633523,27.8852574 L143.653738,27.8852574 L144.865271,28.1252862 L145.851258,28.9874791 L146.550034,29.3007288 L147.261543,30.1456831 L147.261543,30.8650532 L147.261543,31.7606105 L146.550034,32.3719986 L146.246314,33.1737784 L146.550034,33.7801873 L146.550034,34.7262368 L146.961096,35.2984277 L146.550034,36.0163829 L146.246314,37.2412976 L146.246314,38.8957945 L146.246314,40.2417984 L146.550034,41.5441421 L146.961096,42.3177774 L147.516852,43.1724748 L148.255152,43.4572659 L149.1455,43.4572659 L150.469077,43.1724748 L151.732176,43.1724748 L152.813639,42.7981906 L154,42.0492221 L154,42.3177774 L152.813639,43.1724748 L152.4486,44.0295148 L151.732176,44.4520325 L150.709032,44.961017 L149.440052,44.961017 L147.864927,45.2014657 L145.851258,44.6835191 L144.463795,44.0295148 L143.280981,43.1724748 L142.633523,42.3177774 L142.371712,41.0193914 L142.371712,40.2417984 L141.948018,39.9335545 L140.908194,41.0193914 L139.996681,41.5441421 L138.978086,42.3177774 L138.050516,43.1724748 L136.945946,43.7428757 L135.74876,44.0295148 L134.47914,44.0295148 L133.59583,43.7428757 L132.991324,43.1724748 L132.577121,42.3177774 L132.262114,41.5441421 L132.262114,40.6676636 L132.262114,39.9335545 L130.965873,41.0193914 L129.787828,42.0492221 L128.448167,42.7981906 L126.773974,43.7428757 L125.301099,44.4520325 L123.798942,44.961017 L122.263899,45.2014657 L120.707814,45.2014657 L119.530715,44.961017 L118.242891,44.0295148 L117.219841,43.1724748 L116.200716,42.3177774 L115.754317,42.3177774 L114.418318,43.7428757 L112.914116,45.2014657 L111.77693,46.3745586 L110.366105,47.4755516 L108.522792,48 L106.525633,48 L104.511696,48 L103.385614,47.0248404 L102.252998,46.3745586 L101.637227,45.8806155 L101.316702,45.5956249 L101.316702,44.4520325 L100.93818,44.6835191 L100.699514,44.4520325 L100.400817,42.7981906 L100.400817,40.6676636 L100,43.1724748 L100,41.2644779 L100,38.8957945 L100.400817,36.7038482 L100.699514,34.074869 L101.637227,31.1133025 L102.677777,27.8852574 L103.643884,25.3825258 L104.511696,23.2372934 L105.966131,20.4412613 L107.091359,18.0064481 L108.272851,15.9960335 L109.204721,13.6328332 L110.366105,11.5552895 L111.77693,9.31086651 L113.194235,7.24778344 L114.418318,5.24761145 L115.463792,3.82101016 L116.542281,2.48576387 L117.767983,1.27082799 L118.829382,0.383881612 L119.983074,0 L120.995836,0 L122.263899,0 L122.958899,0.383881612 L123.42081,0.700596397 Z M119.045872,7.54861161 L116.353274,11.2505779 L114.609989,14.1160704 L113.126632,16.9581754 L112.113664,19.35852 L111.229691,20.9395259 L110.130644,23.195626 L108.97075,25.1636567 L107.814549,27.5215237 L110.130644,24 L112.113664,21.7367477 L113.430211,19.693653 L113.955831,18.3331284 L115.608193,15.8622988 L116.353274,14.7842485 L116.619578,13.388869 L117.537996,10.8729644 L118.423092,9.24778469 L119.045872,7.54861161 Z M126.734371,29.1359766 L126.125283,29.1359766 L125.174392,29.486407 L124.065082,30.176313 L122.784095,31.1702659 L121.989293,31.9058864 L121.085445,32.8811216 L120.720409,33.4317734 L120.338441,34.109945 L120.338441,34.4532914 L121.59041,34.109945 L122.784095,33.4317734 L124.065082,32.8811216 L125.469847,32.2236466 L126.125283,31.4923504 L126.734371,30.8174326 L127,30.176313 L127,29.486407 L126.734371,29.1359766 Z M144.4013,31.794634 L143.209805,32.0400298 L141.530122,32.7121543 L140.148522,33.825023 L138.649374,35.2400228 L137.529879,36.8282569 L136.649216,38.1493925 L136.092326,39.2633668 L135.824592,40.1314402 L135.824592,40.8791128 L136.649216,40.5408058 L137.800506,39.6581278 L139.416162,38.1493925 L140.74917,36.8282569 L142.379009,35.6109315 L143.442663,34.4532914 L144.4013,33.825023 L145.141144,33.2009992 L145.44126,32.7121543 L145.711991,32.0400298 L145.141144,31.794634 L144.4013,31.794634 Z" id="Combined-Shape" fill="#FFFFFF"></path>
                <path d="M165.536859,25.1224594 L166.170044,22.8106604 L166.911417,20.4271685 L167.54716,18.2302206 L168.215618,16.4283406 L168.895191,14.5847202 L169.747217,12.6354486 L170.968316,10.4178093 L172.214605,8.51528426 L173.17031,7.23747511 L173.896852,6.04848759 L174.403105,5.62435979 L175.392225,5.62435979 L176.071096,4.45564208 L177.023449,3.05104018 L178.094197,2.08542963 L179.117213,1.3909744 L179.891243,1 L180.800572,1 L180.800572,1.3909744 L181.513973,1 L182.26375,1.3909744 L182.26375,2.08542963 L183,2.08542963 L183,2.75568855 L183,3.83510806 L182.26375,6.04848759 L181.136842,8.98034197 L179.891243,11.3630644 L178.452968,13.7522207 L176.775853,16.6722573 L173.896852,19.8883572 L172.54135,22.8106604 L171.431162,24.7830277 L170.500838,26.8052682 L169.747217,29.077041 L169.13893,31.2575607 L168.895191,33.867908 L168.58888,36.3877647 L168.58888,38.3847667 L169.13893,40.1560319 L169.747217,41.8678735 L170.500838,43.2644338 L171.431162,44.9176366 L171.978791,46.1386727 L171.978791,45.3197574 L172.214605,44.9176366 L172.54135,45.8295025 L172.54135,46.3958828 L173.17031,46.3958828 L173.17031,47.5675691 L173.896852,47.3285667 L174.403105,47.5675691 L173.896852,48 L172.54135,47.0828301 L171.431162,46.3958828 L171.66715,47.3285667 L172.54135,48 L171.431162,45.8295025 L170.202671,46.1386727 L169.403162,45.8295025 L168.58888,44.9176366 L167.54716,43.9308191 L166.51794,42.4350413 L165.536859,40.5458 L164.950349,38.8381159 L164.492368,37.2460189 L164.248949,36.3877647 L163.860921,35.6492789 L163.224614,35.4138093 L162.663271,35.9703121 L161.785345,37.2460189 L160.70364,38.8381159 L159.343395,39.6691975 L157.99596,40.5458 L156.776172,40.5458 L155.488193,40.5458 L155.488193,40.9275453 L154.807577,41.16758 L154.502377,40.5458 L154.126216,40.9275453 L153.469354,40.9275453 L153.469354,40.5458 L152.856539,39.6691975 L152.616745,39.2861573 L152.336258,38.8381159 L152.856539,40.5458 L152.205995,39.6691975 L152.856539,38.8381159 L152,38.1082038 L152,37.059838 L152,35.9703121 L152.336258,34.6326543 L152.856539,33.3644583 L153.469354,32.1063819 L154.682601,30.7467985 L155.488193,30.0032518 L156.776172,29.1921001 L158.285964,28.2844835 L159.343395,27.8187732 L160.70364,27.3469624 L161.785345,27.1828991 L162.663271,27.3469624 L163.421344,27.4978631 L163.860921,27.8187732 L164.248949,28.0466764 L164.802998,28.0466764 L164.950349,27.4978631 L165.136493,26.6807712 L165.353711,25.7725187 L165.536859,25.1224594 Z M163.09011,29.7823491 L162.064376,30.0284002 L160.828476,30.8453397 L159.667338,31.6554252 L158.653922,32.8493049 L157.756845,34.1535721 L157.25945,35.2698127 L156.844299,36.177709 L156.568445,36.9905592 L156.449223,37.6247365 L156.449223,38.514944 L156.568445,39.0369041 L157.25945,39.0369041 L158.278614,38.688889 L159.216225,37.9522523 L160.087433,37.1423602 L160.828476,36.177709 L161.552636,35.1067443 L162.37089,34.0057449 L163.09011,32.8493049 L163.795524,31.8162041 L164.019292,31.0782832 L164.226402,30.2905775 L164.019292,29.7823491 L163.578851,29.7823491 L163.09011,29.7823491 Z M167.749985,22.4255549 L167.215719,23.4552495 L166.872699,25.1710176 L167.311342,24.156183 L167.5,23.4552495 L167.749985,22.4255549 Z M179.840006,5.63046417 L179.348873,5.94265687 L178.711906,6.62820789 L177.850958,7.87264032 L176.880094,9.44299258 L175.910195,11.5644769 L175.040488,13.457802 L174.40691,14.9306315 L173.76145,16.1853171 L173.466843,16.9385003 L173.277676,17.6072746 L173.277676,17.8986113 L174.081463,16.9385003 L175.28509,14.9306315 L176.737561,12.611024 L177.850958,10.5972676 L178.711906,8.93381032 L179.348873,7.39238582 L179.840006,6.34879223 L179.840006,5.94265687 L179.840006,5.63046417 Z" id="Combined-Shape" fill="#FFFFFF"></path>
                <path d="M26.0652911,79.6273552 L26.0652911,81.162596 C25.1249769,81.7208681 24.0393577,82 22.8084009,82 C21.8082485,82 20.9598414,81.7813467 20.263154,81.3440335 C19.5664667,80.9067203 19.0151089,80.3042606 18.6090641,79.5366364 C18.2030193,78.7690122 18,77.9385948 18,77.0453594 C18,75.6264177 18.4648074,74.4331288 19.3944363,73.4654571 C20.3240651,72.4977853 21.4705901,72.0139567 22.8340457,72.0139567 C23.7743599,72.0139567 24.8193752,72.2814581 25.9691231,72.8164689 L25.9691231,74.3168179 C24.921955,73.6655003 23.8983101,73.3398465 22.8981577,73.3398465 C21.8723604,73.3398465 21.0207477,73.6922505 20.343294,74.3970691 C19.6658404,75.1018877 19.3271186,75.9846423 19.3271186,77.0453594 C19.3271186,78.115381 19.6604978,78.9946465 20.327266,79.6831821 C20.9940343,80.3717178 21.8467155,80.7159805 22.8853353,80.7159805 C23.9709708,80.7159805 25.0309455,80.353109 26.0652911,79.6273552 Z M42.9823139,72 C44.3671403,72 45.5200765,72.4768503 46.441157,73.4305652 C47.3622375,74.3842802 47.8227708,75.5798951 47.8227708,77.0174459 C47.8227708,78.4549967 47.3579634,79.6447964 46.4283346,80.5868807 C45.4987057,81.5289649 44.3265362,82 42.9117907,82 C41.5611576,82 40.436003,81.5289649 39.5362933,80.5868807 C38.6365836,79.6447964 38.1867354,78.4643011 38.1867354,77.0453594 C38.1867354,75.5891995 38.6397891,74.3842802 39.5459101,73.4305652 C40.4520311,72.4768503 41.5974875,72 42.9823139,72 Z M43.0336035,73.3258897 C42.0078062,73.3258897 41.1647417,73.6748046 40.5043847,74.3726448 C39.8440276,75.070485 39.5138541,75.9613809 39.5138541,77.0453594 C39.5138541,78.0967719 39.8450962,78.9713852 40.5075903,79.6692254 C41.1700844,80.3670656 41.9992581,80.7159805 42.9951363,80.7159805 C43.9952887,80.7159805 44.8298051,80.3600873 45.4987104,79.6482903 C46.1676157,78.9364933 46.5020634,78.0502495 46.5020634,76.9895324 C46.5020634,75.956729 46.1676157,75.0879309 45.4987104,74.3831124 C44.8298051,73.6782938 44.008111,73.3258897 43.0336035,73.3258897 Z M62.6689757,72.0837404 L63.572955,72.0837404 L67.5799558,81.8883461 L66.2656595,81.8883461 L65.0731761,78.9993022 L61.2649226,78.9993022 L60.1365512,81.8883461 L58.822255,81.8883461 L62.6689757,72.0837404 Z M64.5474576,77.7571528 L63.1049374,74.2260991 L61.7649963,77.7571528 L64.5474576,77.7571528 Z M86.7024318,79.6273552 L86.7024318,81.162596 C85.7621176,81.7208681 84.6764984,82 83.4455416,82 C82.4453893,82 81.5969821,81.7813467 80.9002948,81.3440335 C80.2036074,80.9067203 79.6522496,80.3042606 79.2462049,79.5366364 C78.8401601,78.7690122 78.6371408,77.9385948 78.6371408,77.0453594 C78.6371408,75.6264177 79.1019482,74.4331288 80.031577,73.4654571 C80.9612058,72.4977853 82.1077308,72.0139567 83.4711864,72.0139567 C84.4115006,72.0139567 85.456516,72.2814581 86.6062638,72.8164689 L86.6062638,74.3168179 C85.5590957,73.6655003 84.5354508,73.3398465 83.5352985,73.3398465 C82.5095011,73.3398465 81.6578884,73.6922505 80.9804348,74.3970691 C80.3029811,75.1018877 79.9642594,75.9846423 79.9642594,77.0453594 C79.9642594,78.115381 80.2976385,78.9946465 80.9644068,79.6831821 C81.631175,80.3717178 82.4838563,80.7159805 83.5224761,80.7159805 C84.6081115,80.7159805 85.6680862,80.353109 86.7024318,79.6273552 Z M105.536404,72.1395673 L106.818644,72.1395673 L106.818644,81.8883461 L105.536404,81.8883461 L105.536404,77.645499 L100.503611,77.645499 L100.503611,81.8883461 L99.2213707,81.8883461 L99.2213707,72.1395673 L100.503611,72.1395673 L100.503611,76.354501 L105.536404,76.354501 L105.536404,72.1395673 Z M119.7479,72.1395673 L121.03014,72.1395673 L121.03014,81.8883461 L119.7479,81.8883461 L119.7479,72.1395673 Z M141.075829,72.1395673 L142.293957,72.1395673 L142.293957,81.8883461 L141.191231,81.8883461 L135.203169,74.3866015 L135.203169,81.8883461 L133.997863,81.8883461 L133.997863,72.1395673 L135.036478,72.1395673 L141.075829,79.7041172 L141.075829,72.1395673 Z M159.993147,77.0872296 L163,77.0872296 L163,81.2184229 C161.897268,81.7394769 160.8031,82 159.717465,82 C158.234333,82 157.049341,81.5289649 156.162454,80.5868807 C155.275567,79.6447964 154.83213,78.4829099 154.83213,77.1011863 C154.83213,75.6450264 155.291595,74.4331288 156.210538,73.4654571 C157.129481,72.4977853 158.281349,72.0139567 159.666175,72.0139567 C160.170526,72.0139567 160.649224,72.0732723 161.102284,72.1919051 C161.555345,72.3105379 162.128073,72.5280282 162.820486,72.8443824 L162.820486,74.2679693 C161.751947,73.5933904 160.691973,73.2561061 159.640531,73.2561061 C158.661749,73.2561061 157.836849,73.6189775 157.165807,74.3447313 C156.494765,75.0704851 156.159248,75.9613811 156.159248,77.0174459 C156.159248,78.1246857 156.494765,79.0295382 157.165807,79.7320307 C157.836849,80.4345232 158.700216,80.7857641 159.755932,80.7857641 C160.268831,80.7857641 160.882163,80.6578287 161.595947,80.4019539 L161.71776,80.3600837 L161.71776,78.3293789 L159.993147,78.3293789 L159.993147,77.0872296 Z" id="COACHING" fill="#1C1C1C" fill-rule="nonzero"></path>
            </g>
        </g>
    </g>
</svg>