<?xml version="1.0" encoding="UTF-8"?>
<svg width="994px" height="411px" viewBox="0 0 994 411" version="1.1" xmlns="http://www.w3.org/2000/svg" xmlns:xlink="http://www.w3.org/1999/xlink">
    <!-- Generator: Sketch 56.2 (81672) - https://sketch.com -->
    <title>Group</title>
    <desc>Created with Sketch.</desc>
    <g id="Page-1" stroke="none" stroke-width="1" fill="none" fill-rule="evenodd">
        <g id="A4" transform="translate(-3781.000000, -148.000000)">
            <g id="Group" transform="translate(3781.000000, 148.000000)">
                <path d="M317.716509,404.239491 L317.716509,408.106678 C315.138371,409.512935 312.161838,410.216053 308.786821,410.216053 C306.04462,410.216053 303.718471,409.665277 301.808306,408.563709 C299.89814,407.462141 298.386436,405.944578 297.273149,404.010975 C296.159862,402.077371 295.603227,399.985596 295.603227,397.735584 C295.603227,394.161348 296.877629,391.155518 299.42647,388.718006 C301.97531,386.280494 305.118834,385.061756 308.857134,385.061756 C311.435272,385.061756 314.300477,385.735578 317.452837,387.083241 L317.452837,390.862537 C314.581729,389.221904 311.775116,388.4016 309.032915,388.4016 C306.220401,388.4016 303.885463,389.289286 302.028032,391.064686 C300.170601,392.840085 299.241899,395.063696 299.241899,397.735584 C299.241899,400.43091 300.155953,402.645732 301.984087,404.380116 C303.812221,406.114499 306.150088,406.981678 308.997759,406.981678 C311.974336,406.981678 314.880557,406.067625 317.716509,404.239491 Z M364.099321,385.0266 C367.896215,385.0266 371.057316,386.22776 373.58272,388.630116 C376.108123,391.032471 377.370806,394.04416 377.370806,397.665272 C377.370806,401.286384 376.096404,404.283424 373.547563,406.656483 C370.998723,409.029541 367.784887,410.216053 363.905962,410.216053 C360.202818,410.216053 357.117888,409.029541 354.651079,406.656483 C352.18427,404.283424 350.950884,401.309821 350.950884,397.735584 C350.950884,394.067597 352.193059,391.032471 354.677446,388.630116 C357.161834,386.22776 360.302427,385.0266 364.099321,385.0266 Z M364.239946,388.366444 C361.427432,388.366444 359.115932,389.245341 357.305376,391.003162 C355.49482,392.760984 354.589556,395.005102 354.589556,397.735584 C354.589556,400.384035 355.49775,402.587138 357.314165,404.344959 C359.13058,406.102781 361.403995,406.981678 364.134477,406.981678 C366.876679,406.981678 369.164742,406.085203 370.998735,404.292225 C372.832729,402.499247 373.749712,400.266848 373.749712,397.594959 C373.749712,394.993384 372.832729,392.804929 370.998735,391.02953 C369.164742,389.25413 366.911835,388.366444 364.239946,388.366444 Z M418.075884,385.237537 L420.554399,385.237537 L431.540727,409.934803 L427.937212,409.934803 L424.667681,402.657459 L414.226274,402.657459 L411.132524,409.934803 L407.529009,409.934803 L418.075884,385.237537 Z M423.226274,399.528553 L419.271196,390.634022 L415.597368,399.528553 L423.226274,399.528553 Z M483.970415,404.239491 L483.970415,408.106678 C481.392277,409.512935 478.415744,410.216053 475.040727,410.216053 C472.298526,410.216053 469.972378,409.665277 468.062212,408.563709 C466.152046,407.462141 464.640342,405.944578 463.527056,404.010975 C462.413769,402.077371 461.857134,399.985596 461.857134,397.735584 C461.857134,394.161348 463.131535,391.155518 465.680376,388.718006 C468.229217,386.280494 471.37274,385.061756 475.11104,385.061756 C477.689178,385.061756 480.554384,385.735578 483.706743,387.083241 L483.706743,390.862537 C480.835635,389.221904 478.029022,388.4016 475.286821,388.4016 C472.474307,388.4016 470.13937,389.289286 468.281938,391.064686 C466.424507,392.840085 465.495806,395.063696 465.495806,397.735584 C465.495806,400.43091 466.409859,402.645732 468.237993,404.380116 C470.066127,406.114499 472.403994,406.981678 475.251665,406.981678 C478.228242,406.981678 481.134463,406.067625 483.970415,404.239491 Z M535.609087,385.378162 L539.124712,385.378162 L539.124712,409.934803 L535.609087,409.934803 L535.609087,399.247303 L521.810259,399.247303 L521.810259,409.934803 L518.294634,409.934803 L518.294634,385.378162 L521.810259,385.378162 L521.810259,395.99535 L535.609087,395.99535 L535.609087,385.378162 Z M574.573931,385.378162 L578.089556,385.378162 L578.089556,409.934803 L574.573931,409.934803 L574.573931,385.378162 Z M633.050493,385.378162 L636.390337,385.378162 L636.390337,409.934803 L633.366899,409.934803 L616.948931,391.038319 L616.948931,409.934803 L613.644243,409.934803 L613.644243,385.378162 L616.491899,385.378162 L633.050493,404.43285 L633.050493,385.378162 Z M684.917681,397.841053 L693.161821,397.841053 L693.161821,408.247303 C690.138369,409.55981 687.138399,410.216053 684.161821,410.216053 C680.095395,410.216053 676.846404,409.029541 674.414751,406.656483 C671.983098,404.283424 670.76729,401.356695 670.76729,397.876209 C670.76729,394.208222 672.027043,391.155518 674.546587,388.718006 C677.066131,386.280494 680.224302,385.061756 684.021196,385.061756 C685.404016,385.061756 686.716502,385.211169 687.958696,385.509998 C689.20089,385.808828 690.771187,386.356674 692.669634,387.153553 L692.669634,390.739491 C689.739932,389.040263 686.833711,388.190662 683.950884,388.190662 C681.267277,388.190662 679.00558,389.104716 677.165727,390.93285 C675.325874,392.760984 674.405962,395.005102 674.405962,397.665272 C674.405962,400.454348 675.325874,402.733622 677.165727,404.503162 C679.00558,406.272702 681.372744,407.157459 684.26729,407.157459 C685.673547,407.157459 687.355171,406.835197 689.312212,406.190662 L689.646196,406.085194 L689.646196,400.969959 L684.917681,400.969959 L684.917681,397.841053 Z" id="COACHING" fill="#1C1C1C" fill-rule="nonzero"></path>
                <path d="M83.9625109,4.6143837 C93.2817247,4.6143837 97.5334032,7.42844772 103.728655,7.42844772 C109.923906,7.42844772 128.687548,1.56261826 135.666948,1.56261826 C142.646349,1.56261826 165.544939,-1.37029648 168.577562,1.56261826 C170.599311,3.51789474 172.540361,6.72585424 174.400713,11.1864967 L174.400713,27.2457695 L171.343706,42.6553383 L168.577562,62.5658607 L154.779924,107.492893 L135.666948,172.906544 L120.718828,212.264515 C120.495338,212.784009 120.144612,213.524171 119.666651,214.485003 C119.188689,215.445834 118.323879,217.149224 117.072222,219.595173 C117.072222,219.856655 117.072222,220.372286 117.072222,221.142067 C117.072222,221.911847 117.072222,223.176366 117.072222,224.935623 L115.480058,226.072376 L113.375597,226.072376 C113.894664,225.49189 113.214694,226.197837 111.335687,228.190216 C109.456681,230.182595 106.921003,232.886317 103.728655,236.30138 L95.3081835,251.525684 L77.0790575,266.550617 C75.793216,267.538787 75.9135932,266.782858 77.4401892,264.282829 C78.9667852,261.782801 80.6778441,259.53948 82.573366,257.552868 L83.9625109,255.71764 L95.3081835,242.613911 C99.5679389,233.111125 102.271812,227.156788 103.419802,224.750899 C104.567791,222.345011 104.670742,221.86374 103.728655,223.307087 L95.3081835,236.30138 C94.3403611,237.523153 94.4219606,236.896143 95.5529821,234.420351 C96.6840036,231.944559 99.4092278,225.560562 103.728655,215.26836 C103.446651,215.432091 103.211829,215.684553 103.024187,216.025746 C102.12457,217.661539 100.774114,220.681704 98.9941271,224.034496 C97.3894773,227.057022 94.7748185,231.589594 92.2986849,236.30138 C91.5454047,237.734782 90.5161714,239.838959 89.210985,242.613911 L81.034807,251.525684 L77.0790575,255.71764 L72.8556994,266.550617 C71.9486337,268.49935 71.2586287,270.002808 70.7856844,271.060991 C70.3127401,272.119174 70.0516292,272.743778 70.0023516,272.934803 C67.0571175,274.525587 64.8064665,275.661162 63.2503985,276.34153 C61.6943304,277.021897 59.6213527,277.776764 57.0314653,278.606129 C54.6887887,279.29079 52.8546175,279.782598 51.5289515,280.081551 C50.2032855,280.380504 48.146608,280.76651 45.358919,281.23957 C45.1315022,281.055392 45.6071555,280.467493 46.785879,279.475874 C47.9646024,278.484255 49.7354497,277.181868 52.0984209,275.568714 C52.0984209,275.36142 51.5549413,275.257773 50.4679821,275.257773 C49.3810229,275.257773 45.8218261,275.36142 39.7903917,275.568714 C39.416292,275.421783 39.2292421,275.846022 39.2292421,276.841434 C39.2292421,277.677338 39.7894459,278.909435 40.0532587,280.409117 C40.0868191,280.599895 39.8121469,280.288814 39.2292421,279.475874 C37.1323495,279.457882 35.3562747,279.167967 33.901018,278.606129 C32.4457612,278.04429 30.281803,277.289424 27.4091433,276.34153 C24.8753262,275.517758 22.9166305,274.732313 21.5330561,273.985195 C20.1494816,273.238077 18.1628928,271.893104 15.5732897,269.950275 C12.9510391,266.539731 10.9807944,263.774523 9.66255551,261.654652 C8.34431663,259.53478 6.49545938,256.158458 4.11598378,251.525684 C2.9808158,246.604246 2.15182487,242.844938 1.62901097,240.247761 C1.10619708,237.650583 0.630378445,234.928001 0.20155507,232.080014 C0.360049384,228.989903 0.43929654,226.308064 0.43929654,224.034496 C0.43929654,221.760929 0.302085059,219.091345 0.0276620952,216.025746 C-0.0847494038,215.520822 0.145447231,214.698703 0.718252,213.559389 C1.29105677,212.420075 2.42363403,209.923234 4.11598378,206.068867 L7.70033437,215.26836 L10.9014299,236.30138 C11.243476,237.129916 12.0002763,238.445376 13.1718309,240.247761 C14.3433856,242.050145 16.0530566,244.529241 18.300844,247.685047 C18.341755,249.060951 19.4191591,250.341164 21.5330561,251.525684 C23.6469531,252.710205 27.3478745,254.107523 32.6358202,255.71764 L48.9189928,255.71764 C54.7408569,251.963193 58.7582977,249.285662 60.9713152,247.685047 C63.1843327,246.084433 65.2059849,244.394054 67.0362719,242.613911 L81.034807,219.595173 C85.8119774,208.951265 89.5666034,200.22275 92.2986849,193.409626 C95.0307664,186.596502 98.8407563,176.46077 103.728655,163.00243 C109.22716,146.705197 113.144295,134.768325 115.480058,127.191814 C117.815822,119.615304 120.727911,109.400239 124.216326,96.5466194 L135.666948,46.3495827 L135.666948,32.5512047 L138.286577,36.5850639 L139.692919,42.6553383 L135.666948,57.1117897 L131.737505,74.831089 C135.093498,66.3826684 137.745302,59.7447518 139.692919,54.9173393 C141.640535,50.0899268 142.819012,47.2340079 143.22835,46.3495827 C143.22835,43.3629951 143.22835,41.0458361 143.22835,39.3981056 C143.22835,37.7503751 143.22835,35.4680748 143.22835,32.5512047 L124.216326,32.5512047 L113.375597,36.5850639 L89.210985,39.3981056 L70.0023516,39.3981056 L62.9483507,39.3981056 L57.0314653,32.5512047 L62.9483507,27.2457695 L62.9483507,19.7384605 L67.0362719,16.6732216 C72.107622,8.63399633 77.7497016,4.6143837 83.9625109,4.6143837 Z" id="Path" fill="#4CA39B"></path>
                <polygon id="Path-2" fill="#4CA39B" points="188.950014 143.050125 191.837625 146.739094 193.24814 152.845322 191.099077 152.845322 187.630358 164.903271 181.681703 182.071598 177.522661 193.303432 174.400713 204.269695 172.377512 211.373783 168.558359 222.247715 166.381883 227.84177 166.381883 233.707874 168.558359 233.707874 174.400713 230.169804 195.057497 211.373783 219.566118 188.379 191.099077 217.611858 177.522661 230.169804 187.630358 223.889423 168.558359 236.363682 172.377512 236.363682 181.681703 230.169804 193.24814 219.603085 207.091371 206.101215 218.1924 195.932743 222.067293 185.951077 232.277986 171.132793 237.839754 164.903271 242.736513 162.60181 247.010988 164.903271 249.409715 171.132793 249.409715 176.490932 245.351351 182.071598 245.351351 189.706903 242.736513 195.932743 240.393022 204.269695 237.839754 211.373783 237.839754 219.603085 240.393022 223.889423 240.393022 227.84177 245.351351 230.169804 252.973894 230.169804 262.007189 223.889423 273.002016 214.764713 277.806536 211.373783 280.247347 197.441196 284.55884 184.228642 289.682344 169.070065 294.309267 157.858311 299.320558 146.739094 304.12311 143.050125 308.544023 143.050125 311.630647 146.739094 311.630647 152.845322 308.544023 162.60181 308.544023 171.132793 304.12311 178.439556 301.078111 185.951077 315.36603 166.648846 323.641161 156.433338 331.649477 146.739094 337.994585 138.392742 344.154924 133.32238 351.63814 130.756725 360.493944 130.756725 364.24666 135.166447 364.24666 140.748761 362.903856 148.434803 358.779802 162.60181 356.06505 174.373127 354.588548 182.071598 351.63814 193.303432 356.06505 185.951077 357.388475 189.706903 360.493944 189.706903 366.478044 182.071598 373.636461 178.439556 373.636461 171.132793 386.038591 154.346737 399.143236 140.748761 407.801866 136.999931 415.492082 138.392742 421.041673 143.050125 422.703356 148.434803 421.041673 156.433338 421.041673 164.903271 418.753069 171.132793 421.041673 169.070065 421.041673 178.439556 417.475847 174.373127 418.753069 182.071598 415.492082 220.952152 417.475847 230.169804 421.041673 233.707874 422.703356 236.363682 421.041673 238.791416 415.492082 238.791416 407.801866 236.363682 401.107744 231.590305 394.860185 223.889423 391.261644 214.764713 391.261644 201.313808 392.987322 189.706903 394.860185 178.439556 397.06563 171.132793 397.06563 166.648846 394.860185 166.648846 389.049669 174.373127 381.458376 184.228642 371.233873 197.441196 362.903856 209.181904 356.06505 214.764713 349.802828 217.611858 344.154924 217.611858 337.994585 214.764713 334.229723 211.373783 331.649477 206.101215 331.649477 197.441196 334.229723 189.706903 334.229723 184.228642 336.270403 178.439556 334.229723 176.490932 329.236681 184.228642 326.784151 185.951077 323.641161 185.951077 321.99904 188.379 317.433901 188.379 321.99904 178.439556 310.007402 195.932743 304.12311 206.101215 310.007402 201.313808 315.36603 191.454563 317.433901 191.454563 305.479982 209.181904 299.320558 217.611858 296.687258 225.415241 294.54262 230.169804 294.309267 236.363682 291.641817 236.363682 289.682344 238.791416 287.123796 238.791416 280.247347 233.707874 277.806536 230.169804 276.418367 227.84177 276.418367 225.415241 276.418367 222.247715 269.838838 231.590305 262.007189 236.363682 256.194353 238.791416 247.010988 243.436695 260.012132 233.707874 273.002016 223.889423 276.418367 219.603085 262.007189 230.169804 252.973894 236.363682 240.393022 247.822697 234.471597 249.502827 226.92209 249.502827 219.566118 247.822697 213.150606 243.436695 210.4927 238.791416 210.4927 233.707874 210.4927 225.415241 210.4927 214.764713 201.171556 223.889423 191.099077 233.707874 177.522661 243.436695 170.640352 247.822697 159.801668 247.822697 151.790376 245.299946 148.188791 240.679188 145.901979 233.707874 145.901979 223.889423 145.901979 209.181904 150.145479 193.303432 154.481951 182.071598 154.481951 176.490932 163.16411 157.858311 170.640352 148.434803 170.640352 146.739094 174.400713 146.739094 179.865984 143.050125 181.681703 146.739094 185.320268 140.748761"></polygon>
                <path d="M466.004305,134.054401 L469.502611,136.916454 L471.722734,138.530209 L474.864794,134.054401 L477.658068,134.054401 L480.993166,136.292305 L482.321123,140.770489 L482.321123,145.641827 L482.321123,151.686153 L478.970522,161.267811 L474.864794,169.838795 L471.722734,178.587482 L468.215349,186.279697 L468.215349,192.066608 L474.162714,182.447742 L485.128557,168.095921 L494.603151,155.131641 L505.107881,143.072403 L513.964556,136.292305 L520.283373,130.756725 L526.445406,130.756725 L531.578569,136.292305 L535.360857,140.770489 L538.616335,149.797581 L538.616335,158.937283 L538.616335,168.095921 L535.360857,178.587482 L529.892092,190.129776 L523.117021,200.457134 L515.509279,208.977955 L506.912325,217.261158 L496.892107,224.668873 L502.31032,218.56551 L493.142687,224.668873 L485.128557,224.668873 L480.993166,223.043949 L478.970522,223.043949 L478.970522,218.56551 L474.864794,217.261158 L471.722734,213.472523 L469.502611,208.977955 L469.502611,202.924938 L466.004305,206.20528 L461.592439,218.56551 L458.279817,226.320683 L458.279817,232.567051 L453.956621,236.857853 L449.321092,258.460377 L446.267626,272.934803 L444.405901,283.008305 L441.697542,299.366871 L439.814165,308.265385 L437.91382,315.967442 L436.136949,322.280338 L433.560137,333.160206 L430.315828,335.860554 L431.772203,330.934803 L433.560137,320.203587 L430.315828,333.160206 L427.942247,338.664722 L424.605654,341.224216 L419.721926,343.074451 L419.721926,338.664722 L417.658983,341.224216 L417.658983,335.860554 L417.658983,330.934803 L419.721926,312.602909 L422.703356,287.126102 L425.872385,277.523685 L427.942247,249.502827 L430.315828,236.857853 L433.560137,218.56551 L436.136949,211.261852 L436.136949,220.416363 L433.560137,229.516514 L430.315828,248.064236 L437.91382,217.261158 L436.136949,208.977955 L441.697542,188.300507 L444.405901,175.883114 L449.321092,158.937283 L455.72542,145.641827 L458.279817,140.770489 L455.72542,148.434803 L461.592439,138.530209 L466.004305,134.054401 Z M518.584947,150.038845 L512.788378,150.038845 L505.463945,156.439526 L497.404695,165.232403 L488.975008,175.368946 L483.312853,182.229908 L478.137659,190.129776 L476.093752,194.706661 L478.137659,200.185772 L479.949266,205.224781 L487.158525,201.960918 L496.046053,194.706661 L505.463945,185.615543 L511.183168,175.368946 L515.315248,167.878788 L518.584947,162.256535 L520.025377,156.439526 L518.584947,150.038845 Z" id="Combined-Shape" fill="#4CA39B"></path>
                <path d="M667.805284,3.81943512 L669.849901,11.9742279 L669.849901,20.8309669 L668.827593,31.9061089 L665.307665,43.2918282 L659.310091,56.8501244 L650.817903,70.3996086 L642.978777,82.0073586 L633.006944,91.8217278 L621.718187,106.929111 L610.994081,121.85091 L597.216623,140.475468 L585.898096,155.734867 L580.971559,166.213627 L576.45064,178.415409 L573.425333,190.68996 L570.666887,203.028049 L568.405138,217.705402 L568.405138,229.239368 L568.405138,236.915588 L570.666887,243.600742 L574.789774,248.573261 L580.971559,252.819767 L587.249567,252.819767 L593.280611,252.819767 L600.103594,248.573261 L606.203035,243.600742 L612.50873,238.472645 L619.127519,233.322514 L626.351457,226.485828 L624.78055,223.62505 L621.718187,217.705402 L621.718187,210.061481 L619.127519,203.028049 L621.718187,190.68996 L626.351457,178.415409 L634.275759,166.213627 L642.978777,155.734867 L650.817903,148.434803 L661.5497,140.475468 L671.726671,134.071209 L683.293901,130.756725 L694.988924,130.756725 L704.082979,132.690914 L711.046541,138.377689 L713.785753,143.224094 L713.785753,150.661076 L711.046541,158.030781 L706.956163,164.344952 L699.305178,171.246525 L690.608537,178.415409 L680.553758,182.224323 L671.726671,185.765659 L661.5497,190.68996 L653.135729,193.721195 L646.770983,196.350193 L642.978777,200.098042 L641.095445,206.481281 L641.095445,215.385075 L641.095445,223.62505 L642.978777,229.239368 L650.817903,233.322514 L659.310091,235.362995 L667.805284,235.362995 L677.972277,233.322514 L687.53499,230.703449 L697.180589,226.485828 L704.082979,221.707539 L711.046541,217.705402 L715.611482,213.765141 L717.314775,206.481281 L713.785753,212.047855 L717.314775,203.028049 L719.55443,196.350193 L719.55443,189.316715 L724.930925,182.224323 L731.620409,171.246525 L738.370012,164.344952 L744.204546,159.738522 L750.651476,155.734867 L756.119356,153.330372 L764.800585,150.661076 L771.691179,152.021809 L777.207628,152.021809 L783.758562,153.330372 L789.089937,158.030781 L792.868318,159.738522 L796.715547,164.344952 L796.715547,168.266735 L796.715547,173.149036 L792.868318,176.482136 L791.226061,180.853191 L792.868318,184.159145 L792.868318,189.316715 L795.09099,192.436123 L792.868318,196.350193 L791.226061,203.028049 L791.226061,212.047855 L791.226061,219.385853 L792.868318,226.485828 L795.09099,230.703449 L798.096041,235.362995 L802.088136,236.915588 L806.902376,236.915588 L814.059145,235.362995 L820.888902,235.362995 L826.736528,233.322514 L833.151354,229.239368 L833.151354,230.703449 L826.736528,235.362995 L824.762712,240.035313 L820.888902,242.338749 L815.356615,245.113575 L808.495058,245.113575 L799.978136,246.424427 L789.089937,243.600742 L781.587725,240.035313 L775.192079,235.362995 L771.691179,230.703449 L770.27553,223.62505 L770.27553,219.385853 L767.98456,217.705402 L762.362078,223.62505 L757.433397,226.485828 L751.925707,230.703449 L746.910204,235.362995 L740.937639,238.472645 L734.464281,240.035313 L727.59926,240.035313 L722.823076,238.472645 L719.55443,235.362995 L717.314775,230.703449 L715.611482,226.485828 L715.611482,221.707539 L715.611482,217.705402 L708.602526,223.62505 L702.232668,229.239368 L694.988924,233.322514 L685.936327,238.472645 L677.972277,242.338749 L669.849901,245.113575 L661.5497,246.424427 L653.135729,246.424427 L646.770983,245.113575 L639.807535,240.035313 L634.275759,235.362995 L628.765199,230.703449 L626.351457,230.703449 L619.127519,238.472645 L610.994081,246.424427 L604.845156,252.819767 L597.216623,258.822041 L587.249567,261.681171 L576.45064,261.681171 L565.560991,261.681171 L559.472109,256.364902 L553.347887,252.819767 L550.018328,250.126942 L548.285204,248.573261 L548.285204,242.338749 L546.238481,243.600742 L544.947977,242.338749 L543.33288,233.322514 L543.33288,221.707539 L541.165605,235.362995 L541.165605,224.961185 L541.165605,212.047855 L543.33288,200.098042 L544.947977,185.765659 L550.018328,169.620113 L555.644731,152.021809 L560.868608,138.377689 L565.560991,126.682545 L573.425333,111.439442 L579.5096,98.1655922 L585.898096,87.2054329 L590.936853,74.3219948 L597.216623,62.9958687 L604.845156,50.7599678 L612.50873,39.5126762 L619.127519,28.6083565 L624.78055,20.8309669 L630.612093,13.5516167 L637.239641,6.92816162 L642.978777,2.09280396 L649.216951,0 L654.693102,0 L661.5497,0 L665.307665,2.09280396 L667.805284,3.81943512 Z M644.14937,41.1526985 L629.590105,61.3346748 L620.163912,76.9564552 L612.14319,92.4507332 L606.665926,105.536671 L601.886156,114.155827 L595.943453,126.455387 L589.671739,137.184483 L583.419992,150.038845 L595.943453,130.840586 L606.665926,118.502033 L613.784681,107.363712 L616.626787,99.9465523 L625.561342,86.4763527 L629.590105,80.5991554 L631.030046,72.9919777 L635.996065,59.2760429 L640.781908,50.4160652 L644.14937,41.1526985 Z M685.722185,158.840343 L682.428758,158.840343 L677.287157,160.750782 L671.288957,164.511936 L664.362474,169.93066 L660.064867,173.941036 L655.177629,179.257717 L653.203829,182.259701 L651.138475,185.956882 L651.138475,187.828701 L657.908052,185.956882 L664.362474,182.259701 L671.288957,179.257717 L678.884722,175.673367 L682.428758,171.686565 L685.722185,168.007122 L687.15848,164.511936 L687.15848,160.750782 L685.722185,158.840343 Z M781.249803,173.334522 L774.807222,174.672344 L765.724932,178.336559 L758.254427,184.403576 L750.148317,192.117718 L744.095049,200.776279 L739.333177,207.978703 L736.321993,214.051746 L734.874315,218.784214 L734.874315,222.860294 L739.333177,221.015949 L745.558367,216.203861 L754.294451,207.978703 L761.502214,200.776279 L770.314989,194.139797 L776.066316,187.828701 L781.249803,184.403576 L785.250246,181.001591 L786.873018,178.336559 L788.336901,174.672344 L785.250246,173.334522 L781.249803,173.334522 Z" id="Combined-Shape" fill="#4CA39B"></path>
                <path d="M898.742906,136.237232 L902.184511,123.560993 L906.214159,110.491642 L909.669664,98.4451637 L913.302995,88.5649529 L916.996736,78.4558678 L921.627825,67.7674675 L928.264971,55.6075325 L935.039034,45.175457 L940.23366,38.1688728 L944.182695,31.6493225 L946.934374,29.3237114 L952.310625,29.3237114 L956.000551,22.9153061 L961.176958,15.2134819 L966.996889,9.91876984 L972.557375,6.11087799 L976.764528,3.96705627 L981.707079,3.96705627 L981.707079,6.11087799 L985.584688,3.96705627 L989.660021,6.11087799 L989.660021,9.91876984 L993.661821,9.91876984 L993.661821,13.5939865 L993.661821,19.5127449 L989.660021,31.6493225 L983.534838,47.7254982 L976.764528,60.7906303 L968.946947,73.8910408 L959.831178,89.9024162 L944.182695,107.537189 L936.815019,123.560993 L930.780718,134.376034 L925.724047,145.464542 L921.627825,157.921307 L918.32155,169.877705 L916.996736,184.190968 L915.331819,198.008045 L915.331819,208.958164 L918.32155,218.670506 L921.627825,228.057011 L925.724047,235.714741 L930.780718,244.779713 L933.757295,251.474995 L933.757295,246.984653 L935.039034,244.779713 L936.815019,249.779728 L936.815019,252.885349 L940.23366,252.885349 L940.23366,259.310032 L944.182695,257.999516 L946.934374,259.310032 L944.182695,261.681171 L936.815019,256.652073 L930.780718,252.885349 L932.063402,257.999516 L936.815019,261.681171 L930.780718,249.779728 L924.103395,251.474995 L919.757753,249.779728 L915.331819,244.779713 L909.669664,239.368717 L904.075456,231.16695 L898.742906,220.807713 L895.554994,211.444004 L893.065691,202.714092 L891.742616,198.008045 L889.633531,193.958721 L886.174959,192.667576 L883.123842,195.719036 L878.351976,202.714092 L872.47249,211.444004 L865.079035,216.001057 L857.755205,220.807713 L851.125185,220.807713 L844.124521,220.807713 L844.124521,222.900928 L840.425112,224.217106 L838.766229,220.807713 L836.721651,222.900928 L833.151354,222.900928 L833.151354,220.807713 L829.820467,216.001057 L828.517094,213.90074 L826.99254,211.444004 L829.820467,220.807713 L826.284509,216.001057 L829.820467,211.444004 L825.164846,207.441692 L825.164846,201.693211 L825.164846,195.719036 L826.99254,188.384285 L829.820467,181.430412 L833.151354,174.532028 L839.745821,167.077053 L844.124521,162.999979 L851.125185,158.552208 L859.331487,153.575493 L865.079035,151.021873 L872.47249,148.434803 L878.351976,147.535198 L883.123842,148.434803 L887.244264,149.262234 L889.633531,151.021873 L891.742616,152.27153 L894.754083,152.27153 L895.554994,149.262234 L896.566759,144.781891 L897.747423,139.801689 L898.742906,136.237232 Z M885.44388,161.788708 L879.868616,163.137875 L873.151026,167.617382 L866.839792,172.059307 L861.331484,178.605682 L856.455522,185.757343 L853.751989,191.878002 L851.495485,196.856251 L849.996107,201.313335 L849.348093,204.790707 L849.348093,209.671963 L849.996107,212.534016 L853.751989,212.534016 L859.291536,210.625751 L864.387819,206.586567 L869.123171,202.145702 L873.151026,196.856251 L877.087114,190.983852 L881.534639,184.946766 L885.44388,178.605682 L889.278078,172.940903 L890.494341,168.894676 L891.620066,164.575466 L890.494341,161.788708 L888.100374,161.788708 L885.44388,161.788708 Z M910.772096,121.449352 L907.868158,127.095455 L906.00371,136.50349 L908.387903,130.938869 L909.413334,127.095455 L910.772096,121.449352 Z M976.486032,29.3571835 L973.816538,31.0690231 L970.354372,34.8280907 L965.674791,41.6516609 L960.397768,50.2623405 L955.125994,61.895031 L950.398798,72.2766609 L946.955057,80.3525963 L943.446733,87.2323875 L941.84543,91.3623009 L940.817232,95.029377 L940.817232,96.6268578 L945.186128,91.3623009 L951.728304,80.3525963 L959.623049,67.6335411 L965.674791,56.5915527 L970.354372,47.4703522 L973.816538,39.0182915 L976.486032,33.2959766 L976.486032,31.0690231 L976.486032,29.3571835 Z" id="Combined-Shape" fill="#4CA39B"></path>
            </g>
        </g>
    </g>
</svg>