<?xml version="1.0" encoding="UTF-8"?>
<svg width="53px" height="48px" viewBox="0 0 53 48" version="1.1" xmlns="http://www.w3.org/2000/svg" xmlns:xlink="http://www.w3.org/1999/xlink">
    <!-- Generator: Sketch 56.2 (81672) - https://sketch.com -->
    <title>“</title>
    <desc>Created with Sketch.</desc>
    <g id="Page-1" stroke="none" stroke-width="1" fill="none" fill-rule="evenodd">
        <g id="Jumplead" transform="translate(-70.000000, -1928.000000)" fill="#130A34" fill-rule="nonzero">
            <path d="M108.6,1952.40956 C108.6,1954.15701 109.613323,1955.08532 111.64,1955.19454 L114.84,1955.35836 C116.973344,1955.46758 118.866658,1956.50511 120.52,1958.47099 C122.173342,1960.43687 123,1962.67576 123,1965.18771 C123,1968.24575 121.933344,1970.81228 119.8,1972.88737 C117.666656,1974.96246 115.000016,1976 111.8,1976 C108.066648,1976 105.000012,1974.49831 102.6,1971.49488 C100.199988,1968.49145 99,1964.64166 99,1959.94539 C99,1951.20815 102.359966,1942.25261 109.08,1933.0785 C111.533346,1929.69282 113.666658,1928 115.48,1928 C117.506677,1928 118.52,1929.09215 118.52,1931.27645 C118.52,1932.15018 117.933339,1933.35153 116.76,1934.88055 C113.879986,1938.59388 111.48001,1943.01704 109.56,1948.15017 C108.919997,1949.89762 108.6,1951.3174 108.6,1952.40956 Z M79.44,1952.40956 C79.44,1954.15701 80.4533232,1955.08532 82.48,1955.19454 L85.68,1955.35836 C87.9200112,1955.46758 89.8666584,1956.50511 91.52,1958.47099 C93.1733416,1960.43687 94,1962.67576 94,1965.18771 C94,1968.24575 92.9333333,1970.81228 90.8,1972.88737 C88.666656,1974.96246 86.000016,1976 82.8,1976 C79.066648,1976 76.000012,1974.49831 73.6,1971.49488 C71.199988,1968.49145 70,1964.64166 70,1959.94539 C70,1951.20815 73.3599664,1942.25261 80.08,1933.0785 C82.5333456,1929.69282 84.6666576,1928 86.48,1928 C88.5066768,1928 89.52,1929.09215 89.52,1931.27645 C89.52,1932.15018 88.9333392,1933.35153 87.76,1934.88055 C85.626656,1937.61094 83.7066752,1940.77814 82,1944.38225 C80.2933248,1947.98637 79.44,1950.66211 79.44,1952.40956 Z" id="“"></path>
        </g>
    </g>
</svg>