<?xml version="1.0" encoding="UTF-8"?>
<svg width="360px" height="750px" viewBox="0 0 360 750" version="1.1" xmlns="http://www.w3.org/2000/svg" xmlns:xlink="http://www.w3.org/1999/xlink">
    <!-- Generator: Sketch 56.2 (81672) - https://sketch.com -->
    <title>Group 3</title>
    <desc>Created with Sketch.</desc>
    <g id="Page-1" stroke="none" stroke-width="1" fill="none" fill-rule="evenodd">
        <g id="Jumplead" transform="translate(-61.000000, -2502.000000)">
            <g id="Group-3" transform="translate(61.000000, 2502.000000)">
                <path d="M130.616853,750 L235.988763,750 C232.765591,732.311872 231.154004,718.594108 231.154004,708.846709 C231.154004,694.22561 226.364309,643.444697 226.364309,637.455927 C226.364309,631.467157 226.364309,616.820363 226.364309,616.820363 C226.364309,616.820363 240.582504,609.659393 251.799656,603.51891 C263.016808,597.378427 291.025528,577.214964 299.340065,570.46758 C307.654601,563.720195 339.761623,530.312843 344.293797,517.281744 C348.82597,504.250644 363.804029,448.456983 359.094906,432.666596 C354.385783,416.876208 351.008484,355.280118 344.293797,340.823479 C337.57911,326.366841 305.149497,274.490137 290.516085,263.49641 C275.882673,252.502682 236.292348,237 226.364309,237 C219.745615,237 207.927578,237 190.910196,237 L195.032454,332.134365 C197.780627,361.064087 197.780627,377.174963 195.032454,380.466994 C190.910196,385.405041 160.227724,386.400835 155.415822,385.902938 C152.207887,385.571007 148.94252,335.936694 145.619719,237 C122.178766,243.140709 107.575929,248.047979 101.811209,251.72181 C93.1641292,257.232556 51.4699631,278.778122 44.0134678,286.565817 C36.5569725,294.353512 9.98340535,327.036149 9.98340535,340.823479 C9.98340535,354.61081 0,388.205281 0,410.435938 C0,432.666596 3.99512263,514.629754 9.98340535,529.395891 C15.9716881,544.162028 61.9725143,582.132811 70.3362145,588.256683 C78.6999147,594.380554 115.570976,615.054812 119.839225,626.255369 C122.684725,633.722408 126.277267,674.970618 130.616853,750 Z" id="Path-14" fill="#F8F8F5"></path>
                <circle id="Oval" fill="#F8F8F5" cx="165.5" cy="372.5" r="5.5"></circle>
                <circle id="Oval" fill="#F8F8F5" cx="184.5" cy="370.5" r="5.5"></circle>
                <path d="M86.367934,324.835761 C94.2349551,320.885342 107.886111,315.606755 127.321401,309 L133,314.798846 C109.090694,324.930527 95.3413567,331.045576 91.7519876,333.143993 C88.1626185,335.24241 76.6761932,342.194412 57.2927117,354 L52,348.29116 C67.0449348,336.604647 78.5009128,328.786181 86.367934,324.835761 Z" id="Path-15" fill="#5B3003"></path>
                <path d="M230.53943,300 C241.307738,303.741811 265.088561,314.148606 270.160017,317.257067 C273.540988,319.329375 284.154316,326.880872 302,339.911559 L297.231181,349 C278.121807,335.958088 267.025752,328.614277 263.943016,326.968566 C260.86028,325.322855 248.212608,319.439606 226,309.318817 C226,306.226469 227.513143,303.120196 230.53943,300 Z" id="Path-16" fill="#4B2401"></path>
                <path d="M148.409829,411.558777 C152.190308,409.765613 157.654959,412.288264 164.803781,419.12673 C176.934594,415.82588 183,415.82588 183,419.12673 C183,424.078005 169.960415,438 165.704914,438 C161.449414,438 155.210997,432.75276 151.810413,428.62638 C148.409829,424.5 142.739109,414.248523 148.409829,411.558777 Z" id="Path-17" fill="#E43400"></path>
                <path d="M134.789157,1.81984519 C154.653783,-2.16689777 185.671934,1.11231027 195.497955,4.80753466 C205.323977,8.50275904 238.486568,24.9905318 250.715914,42.6138344 C262.945261,60.2371369 278,83.8788854 278,106.236199 C278,128.593513 271.777545,161.588624 264.76764,173.899646 C257.757734,186.210667 236.187669,213.563085 218.00614,221.626296 C199.824612,229.689507 170.816554,239.455893 154.653783,237.818495 C138.491012,236.181096 105.64774,226.080421 98.3712124,221.626296 C91.0946852,217.172171 56.7492902,190.963532 48.7877946,163.721224 C40.826299,136.478917 39.9425831,98.0332039 45.7462077,81.0807047 C51.5498323,64.1282055 67.1222226,40.5343758 71.5023453,36.898376 C75.8824681,33.2623762 95.0321655,15.6249834 101.824426,13.6483853 C108.616686,11.6717871 114.924531,5.80658815 134.789157,1.81984519 Z M122.3473,34.2460377 L126.58816,29.6337573 L129.436924,24.7818527 L133.653592,23.0292546 L138.688019,24.7818527 L143.776363,29.6337573 L145.872097,36.1460733 L143.776363,36.1460733 L140.580692,36.1460733 L134.109698,34.2460377 L133.653592,36.1460733 L134.109698,40.3455181 L129.436924,43.6863788 C124.846396,44.8332769 121.514105,46.616836 119.440053,49.037056 C117.366,51.457276 114.530742,54.243962 110.934279,57.3971139 L109.259194,63.6387544 L109.259194,68.9485859 L107.325133,68.9485859 L102.278176,63.6387544 L96.7639647,59.7034491 L93.2803043,66.7368069 L88.9108165,72.5551214 L86.7305887,77.5733263 L86.7305887,82.2816489 L90.6560462,82.2816489 L95.1350593,82.2816489 L95.1350593,87.1668906 L96.7639647,93.2439339 L99.7669809,97.6040462 L102.278176,100.13332 L113.025438,95.5032822 L119.440053,97.6040462 L129.436924,97.6040462 L136.435986,100.13332 L143.776363,105.43387 L149.304231,108.980376 L149.304231,112.666974 L145.872097,116.076123 L149.304231,118.533599 L157.492428,118.533599 L163.869402,122.061059 L170.284106,124.369497 L175.688584,127.766937 L177.721428,134.408385 L175.688584,143.548579 L173.318202,150.369701 L170.284106,158.095965 L166.314455,163.381004 L160.440509,169.012556 L155.155507,175.951921 L151.106956,184.711401 L149.304231,189.936076 L145.872097,196.863849 L143.776363,204.393101 L140.580692,211.692603 L136.435986,211.692603 L132.226008,204.393101 L129.436924,196.863849 L126.58816,189.936076 L124.361446,182.478049 L126.58816,173.418441 L126.58816,165.389088 L124.361446,158.095965 L119.440053,154.871337 L113.025438,150.369701 L110.934279,143.548579 L109.259194,136.602896 L104.811616,134.408385 L102.278176,127.766937 L102.278176,122.061059 L109.259194,108.980376 L104.811616,105.43387 L96.7639647,100.13332 L86.7305887,95.5032822 L80.4300152,89.6109874 L77.5712605,82.2816489 L77.5712605,74.4331544 L77.5712605,66.7368069 L74.1554716,68.9485859 L71.9671898,74.4331544 L71.9671898,61.645767 L77.5712605,47.1867175 C71.560096,54.6148545 67.5225867,60.0988668 65.4587327,63.6387544 C62.3629516,68.9485859 51.0138889,100.464301 51.0138889,118.533599 C51.0138889,136.602896 64.7811445,175.957094 74.1554716,186.410472 C83.5297986,196.863849 109.399957,215.598348 126.58816,219.893988 C143.776363,224.189628 173.272111,227.208102 185.905158,222.451953 C198.538205,217.695804 216.836148,209.798161 225.996168,201.571915 C235.156188,193.345669 246.340237,181.397302 247.96765,178.674611 C249.052592,176.859484 252.234672,171.157944 257.513889,161.569991 L247.96765,173.418441 L238.453983,178.674611 L234.825053,175.951921 L234.825053,165.389088 L238.453983,154.871337 L241.960096,141.236359 L241.960096,127.766937 L241.960096,116.076123 L241.960096,108.980376 L238.453983,105.43387 L230.724501,105.43387 L225.996168,102.976158 L219.274975,105.43387 L215.548231,108.980376 L210.631265,100.13332 L208.09486,93.2439339 L204.599005,89.6109874 L198.66037,89.6109874 L201.266543,82.2816489 L204.599005,77.5733263 L201.266543,68.9485859 L201.266543,59.7034491 L204.599005,54.4652284 L212.511467,50.6980253 L219.274975,50.6980253 L225.996168,54.4652284 L228.548068,59.7034491 L234.825053,57.3971139 L240.171779,54.4652284 L240.171779,47.1867175 L230.724501,47.1867175 L225.996168,47.1867175 L224.243467,40.3455181 L219.274975,40.3455181 L212.511467,38.7266039 L208.09486,47.1867175 L201.266543,49.037056 L201.266543,43.6863788 L198.66037,49.037056 L193.423771,47.1867175 L193.423771,43.6863788 L196.384481,36.1460733 L193.423771,36.1460733 L189.23839,34.2460377 L189.23839,29.6337573 L196.384481,27.4531581 L189.23839,18.5405627 L181.672638,14.5437865 L173.318202,11.4896552 L163.869402,11.4896552 L157.492428,14.5437865 L154.263889,21.2621082 L151.106956,21.2621082 L149.304231,14.5437865 L145.872097,11.4896552 L140.580692,14.5437865 L143.776363,18.5405627 L132.226008,18.5405627 L124.361446,21.2621082 L116.229321,23.0292546 L116.229321,27.4531581 L119.440053,32.4311936 L122.3473,34.2460377 Z" id="Path-20" fill="#EA3F33"></path>
            </g>
        </g>
    </g>
</svg>